<?xml version="1.0" standalone="no"?>
<!DOCTYPE svg PUBLIC "-//W3C//DTD SVG 20010904//EN"
 "http://www.w3.org/TR/2001/REC-SVG-20010904/DTD/svg10.dtd">
<svg version="1.0" xmlns="http://www.w3.org/2000/svg"
 width="320.000000pt" height="320.000000pt" viewBox="0 0 320.000000 320.000000"
 preserveAspectRatio="xMidYMid meet">
<metadata>
Created by potrace 1.14, written by Peter Selinger 2001-2017
</metadata>
<g transform="translate(0.000000,320.000000) scale(0.100000,-0.100000)"
fill="#000000" stroke="none">
<path d="M2886 1868 c-198 -141 -219 -158 -193 -158 42 0 271 70 290 88 26 27
29 60 7 82 -28 28 -51 25 -104 -12z"/>
<path d="M225 1672 c-113 -12 -190 -63 -162 -106 30 -45 110 -64 190 -45 80
19 97 78 31 105 -19 8 -34 16 -34 18 0 9 85 -3 108 -15 22 -12 37 -51 35 -91
-3 -58 9 -54 -150 -53 -131 0 -153 -2 -188 -21 -71 -37 -71 -108 0 -144 60
-29 266 -19 330 17 16 10 24 8 43 -9 19 -19 37 -22 131 -25 119 -3 161 6 202
44 34 31 43 80 17 86 -12 4 -18 0 -18 -11 -1 -26 -25 -52 -47 -52 -35 0 -46
26 -48 118 -1 49 -8 98 -14 110 -12 23 -66 54 -116 67 -31 8 -256 13 -310 7z
m166 -230 c4 -36 4 -64 -1 -67 -15 -9 -67 -15 -92 -9 -33 7 -46 39 -24 63 11
12 32 18 66 18 27 1 50 -2 51 -5z"/>
<path d="M1369 1669 c-20 -5 -59 -17 -87 -28 -29 -12 -53 -17 -54 -13 0 4 -2
14 -2 22 -1 17 -29 18 -176 6 -237 -19 -233 -18 -224 -39 2 -7 23 -13 46 -14
69 -2 93 -40 89 -141 -2 -64 -50 -112 -112 -112 -12 0 -19 -7 -19 -18 0 -17
14 -18 209 -18 115 1 212 4 216 8 4 3 -1 18 -11 33 -13 20 -18 50 -19 125 l-1
99 29 7 c22 5 34 1 51 -15 18 -18 21 -34 22 -99 0 -55 -5 -87 -18 -111 -9 -19
-15 -37 -13 -41 2 -3 95 -6 207 -5 184 1 203 2 206 18 3 13 -4 17 -31 17 -58
0 -77 31 -78 131 -1 146 -33 193 -137 195 -31 0 -73 -3 -93 -7z"/>
<path d="M2234 1670 c-17 -4 -45 -14 -64 -23 -41 -21 -40 -21 -40 4 0 20 -3
21 -82 15 -46 -3 -121 -9 -168 -12 -138 -9 -143 -10 -146 -28 -1 -11 5 -16 22
-16 69 0 114 -50 114 -127 0 -74 -35 -118 -105 -133 -16 -3 -31 -12 -33 -21
-2 -12 34 -14 269 -14 209 0 273 3 276 12 3 7 -1 15 -9 17 -7 2 -32 9 -56 15
-62 17 -82 54 -82 153 0 74 1 78 28 92 15 7 43 17 62 20 33 7 34 6 11 -6 -33
-18 -45 -40 -38 -70 8 -32 41 -48 107 -52 69 -4 122 20 140 64 15 36 1 72 -37
97 -25 16 -122 24 -169 13z"/>
<path d="M2748 1675 c-2 -2 -21 -5 -43 -8 -188 -27 -277 -174 -169 -282 54
-54 166 -85 309 -85 244 0 377 85 351 223 -12 62 -93 122 -191 142 -38 8 -251
16 -257 10z m147 -104 c22 -82 3 -211 -33 -230 -42 -22 -74 46 -74 153 1 153
74 206 107 77z"/>
</g>
</svg>
